# ProBuilder 5.0.4
# https://unity3d.com/unity/features/worldbuilding/probuilder
# 2/19/2023 2:08:21 PM

mtllib ./Button.mtl
o Button

g Button
v 0.06249989 -0.06250383 0.06250001
v -0.06250015 -0.06250045 0.06250153
v 0.06250012 0.06249955 0.06250156
v -0.06250001 0.06250338 0.06250156
v -0.06250003 -0.06249851 -0.06249847
v -0.0624999 0.06250532 -0.06249844
v 0.06249999 -0.06250234 -0.06249847
v 0.06250024 0.06250149 -0.06249844

vt 0.06249913 -0.06250305
vt -0.06250091 -0.06249967
vt 0.06249936 0.06250033
vt -0.06250077 0.06250416
vt 0.06250159 -0.06250051
vt -0.06249841 -0.06249858
vt 0.06250162 0.06250332
vt -0.06249838 0.06250525
vt 0.06250003 -0.06249852
vt -0.06249999 -0.06250235
vt -0.06250152 0.06249968

vn 1.215901E-05 -1.239745E-05 1
vn -1 1.072851E-06 -9.536577E-07
vn 7.304155E-12 2.384113E-07 -1
vn 1 -2.026496E-06 7.748457E-07
vn 3.063675E-05 1 1.549724E-05
vn -3.063678E-05 -1 -1.19211E-05

usemtl Button_Off
f 3/3/1 4/4/1 2/2/1 1/1/1
f 4/7/2 6/8/2 5/6/2 2/5/2
f 6/3/3 8/4/3 7/10/3 5/9/3
f 8/3/4 3/11/4 1/10/4 7/1/4
f 8/6/5 6/9/5 4/7/5 3/8/5
f 1/7/6 2/8/6 5/6/6 7/9/6

