# ProBuilder 5.0.4
# https://unity3d.com/unity/features/worldbuilding/probuilder
# 2/11/2023 7:26:19 PM

mtllib ./Caution_Panel.mtl
o Caution Panel

g Caution Panel
v -0.75 -0.0625 -0.5
v -0.75 -0.0625 -0.75
v -0.75 0.0625 -0.75
v -0.75 0.0625 -0.5
v 0.75 -0.0625 -0.75
v 0.75 -0.0625 -0.5
v 0.75 0.0625 -0.5
v 0.75 0.0625 -0.75
v -0.75 -0.0625 0.75
v -0.75 -0.0625 0.5
v -0.75 0.0625 0.5
v -0.75 0.0625 0.75
v 0.75 -0.0625 0.75
v 0.75 0.0625 0.75
v 0.75 0.0625 0.5
v 0.75 -0.0625 0.5
v -0.5 -0.0625 0.75
v -0.5 0.0625 0.75
v -0.5 -0.0625 -0.75
v -0.5 0.0625 -0.75
v -0.5 0.0625 -0.5
v -0.5 -0.0625 -0.5
v -0.5 0.0625 0.5
v -0.5 -0.0625 0.5
v 0.5 -0.0625 0.75
v 0.5 0.0625 0.75
v 0.5 0.0625 -0.75
v 0.5 -0.0625 -0.75
v 0.5 0.0625 -0.5
v 0.5 -0.0625 -0.5
v 0.5 0.0625 0.5
v 0.5 -0.0625 0.5

vt -0.5 -0.0625
vt -0.75 -0.0625
vt -0.75 0.0625
vt -0.5 0.0625
vt 0.75 -0.0625
vt 0.5 -0.0625
vt 0.5 0.0625
vt 0.75 0.0625
vt 0.75 -0.75
vt 0.5 -0.75
vt 0.5 -0.5
vt 0.75 -0.5
vt -0.75 -0.75
vt -0.75 -0.5
vt -0.5 -0.5
vt -0.5 -0.75
vt 0.5 0.5
vt 0.75 0.5
vt 0.5 0.75
vt 0.75 0.75
vt -0.75 0.5
vt -0.5 0.5
vt -0.75 0.75
vt -0.5 0.75

vn -1 0 0
vn 1 0 0
vn 0 0 1
vn 0 0 -1
vn 0 1 0
vn 0 -1 0

usemtl YCauthion
f 4/4/1 3/3/1 2/2/1 1/1/1
f 5/5/2 8/8/2 7/7/2 6/6/2
f 12/8/1 11/7/1 10/6/1 9/5/1
f 11/7/1 4/4/1 1/1/1 10/6/1
f 16/1/2 15/4/2 14/3/2 13/2/2
f 6/6/2 7/7/2 15/4/2 16/1/2
f 18/4/3 12/3/3 9/2/3 17/1/3
f 2/5/4 3/8/4 20/7/4 19/6/4
f 4/12/5 21/11/5 20/10/5 3/9/5
f 19/16/6 22/15/6 1/14/6 2/13/6
f 11/18/5 23/17/5 21/11/5 4/12/5
f 12/20/5 18/19/5 23/17/5 11/18/5
f 22/15/6 24/22/6 10/21/6 1/14/6
f 24/22/6 17/24/6 9/23/6 10/21/6
f 14/8/3 26/7/3 25/6/3 13/5/3
f 26/7/3 18/4/3 17/1/3 25/6/3
f 28/1/4 27/4/4 8/3/4 5/2/4
f 19/6/4 20/7/4 27/4/4 28/1/4
f 21/11/5 29/15/5 27/16/5 20/10/5
f 29/15/5 7/14/5 8/13/5 27/16/5
f 28/10/6 30/11/6 22/15/6 19/16/6
f 5/9/6 6/12/6 30/11/6 28/10/6
f 31/22/5 15/21/5 7/14/5 29/15/5
f 18/19/5 26/24/5 31/22/5 23/17/5
f 26/24/5 14/23/5 15/21/5 31/22/5
f 30/11/6 32/17/6 24/22/6 22/15/6
f 6/12/6 16/18/6 32/17/6 30/11/6
f 32/17/6 25/19/6 17/24/6 24/22/6
f 16/18/6 13/20/6 25/19/6 32/17/6

usemtl GContinuous2
f 23/17/5 31/22/5 29/15/5 21/11/5

