# ProBuilder 5.0.4
# https://unity3d.com/unity/features/worldbuilding/probuilder
# 2/11/2023 10:43:47 PM

mtllib ./Craft_Bench.mtl
o Craft Bench

g Craft Bench
v -2 0 2
v -2 0 0
v -2 2.5 0
v -2 2.5 2
v 0 0 0
v 0 0 2
v 0 2.5 2
v 0 2.5 0
v 0 4 2
v -0.25 4 2
v -0.25 4 0
v 0 4 0
v -0.25 0 0
v -0.25 0 2
v -0.25 2.5 2
v -0.25 2.5 0
v -2 4 0
v -1.75 4 0
v -1.75 4 2
v -2 4 2
v -1.75 0 2
v -1.75 0 0
v -1.75 2.5 2
v -1.75 2.5 0
v -2 3.75 0
v -2 3.75 2
v 0 3.75 2
v 0 3.75 0
v -0.25 3.75 2
v -0.25 3.75 0
v -1.75 3.75 2
v -0.25 2.5 -0.25
v -1.75 3.75 0
v -1.75 2.5 -0.25

vt 2 0
vt 0 0
vt 0 2.5
vt 2 2.5
vt -2 0
vt -2 2.5
vt 0 2
vt 0.25 2
vt 0.25 0
vt -0.25 0
vt -0.25 2
vt -0.25 2.5
vt 0.25 2.5
vt 1.75 0
vt 1.75 2
vt 2 2
vt -2 2
vt -1.75 2
vt -1.75 0
vt -1.75 2.5
vt 1.75 2.5
vt 0 3.75
vt 2 3.75
vt 0 4
vt 2 4
vt -2 3.75
vt -2 4
vt -0.25 3.75
vt -0.25 4
vt 0.25 3.75
vt 0.25 4
vt -1.75 3.75
vt -1.75 4
vt 0.25 2.402423
vt 0.25 3.677178
vt 1.75 3.677178
vt 1.75 2.402423
vt 1.75 4
vt 1.75 3.75
vt -1.75 -0.25
vt -0.25 -0.25

vn -1 0 0
vn 1 0 0
vn 0 1 0
vn 0 -1 0
vn 0 0 1
vn 0 0 -1
vn 0 0.1961161 -0.9805807
vn 0.5 0 0
vn 0 0 0
vn -0.5 0 0

usemtl GContinuous
f 4/4/1 3/3/1 2/2/1 1/1/1
f 5/2/2 8/3/2 7/6/2 6/5/2
f 5/2/4 6/7/4 14/11/4 13/10/4
f 19/15/3 10/8/3 11/9/3 18/14/3
f 22/19/4 21/18/4 1/17/4 2/5/4
f 13/10/4 14/11/4 21/18/4 22/19/4
f 15/12/5 23/20/5 21/19/5 14/10/5
f 22/14/6 24/21/6 16/13/6 13/9/6
f 26/23/1 25/22/1 3/3/1 4/4/1
f 20/25/1 17/24/1 25/22/1 26/23/1
f 8/3/2 28/22/2 27/26/2 7/6/2
f 28/22/2 12/24/2 9/27/2 27/26/2
f 29/28/5 31/32/5 23/20/5 15/12/5
f 10/29/5 19/33/5 31/32/5 29/28/5
f 33/39/6 18/38/6 11/31/6 30/30/6
f 32/13/8 30/22/9 30/22/8 16/3/2
f 30/2/9 33/2/9 33/2/9 30/2/9
f 33/2/10 34/2/1 24/2/10 33/2/9
f 34/40/4 32/41/4 16/10/4 24/19/4

usemtl BLKContinuous_1
f 34/37/7 33/36/7 30/35/7 32/34/7

usemtl GreyStripM
f 10/8/3 9/7/3 12/2/3 11/9/3
f 13/9/6 16/13/6 8/3/6 5/2/6
f 20/16/3 19/15/3 18/14/3 17/1/3
f 2/1/6 3/4/6 24/21/6 22/14/6
f 16/13/6 30/30/6 28/22/6 8/3/6
f 30/30/6 11/31/6 12/24/6 28/22/6
f 3/4/6 25/23/6 33/39/6 24/21/6
f 25/23/6 17/25/6 18/38/6 33/39/6

usemtl GreyStripL
f 7/3/5 15/12/5 14/10/5 6/2/5
f 23/20/5 4/6/5 1/5/5 21/19/5
f 27/22/5 29/28/5 15/12/5 7/3/5
f 9/24/5 10/29/5 29/28/5 27/22/5
f 31/32/5 26/26/5 4/6/5 23/20/5
f 19/33/5 20/27/5 26/26/5 31/32/5

