# ProBuilder 5.0.4
# https://unity3d.com/unity/features/worldbuilding/probuilder
# 7/25/2022 2:53:03 PM

mtllib ./DebrisCube1A.mtl
o DebrisCube1A

g DebrisCube1A
v 0 0 1
v -1 0 1
v 0 1 1
v -1 1 1
v -1 0 0
v -1 1 0
v 0 0 0
v 0 1 0

vt 0 0
vt -1 0
vt 0 1
vt -1 1
vt 1 0
vt 1 1

vn 0 0 1
vn -1 0 0
vn 0 0 -1
vn 1 0 0
vn 0 1 0
vn 0 -1 0

usemtl TrashTop1
f 8/1/5 6/5/5 4/6/5 3/3/5
f 1/3/6 2/4/6 5/2/6 7/1/6

usemtl TrashFront1
f 4/6/2 6/3/2 5/1/2 2/5/2
f 8/3/4 3/4/4 1/2/4 7/1/4

usemtl TrashR1
f 3/3/1 4/4/1 2/2/1 1/1/1

usemtl TrashR1
f 6/6/3 8/3/3 7/1/3 5/5/3

