# ProBuilder 5.0.4
# https://unity3d.com/unity/features/worldbuilding/probuilder
# 7/26/2022 10:09:51 AM

mtllib ./DebrisPiece1Aa.mtl
o DebrisPiece1Aa

g DebrisPiece1Aa
v -0.75 1 0.5
v -1 1 0.5
v -1 1 0
v -0.75 1 0
v -0.75 0 0
v -1 0 0
v -1 0 0.5
v -0.75 0 0.5
v -0.25 0 0.5
v -0.25 0 0
v -1 0.625 0
v -1 0.625 0.5
v -0.75 0.625 0.5
v -0.75 0.625 0
v -0.25 0.125 0.5
v -0.25 0.125 0

vt 0.75 0.5
vt 1 0.5
vt 1 0
vt 0.75 0
vt -0.75 0
vt -1 0
vt -1 0.5
vt -0.75 0.5
vt -0.25 0.5
vt -0.25 0
vt 0.5 0
vt 0 0
vt 0 0.625
vt 0.5 0.625
vt 0 1
vt 0.5 1
vt -1 0.625
vt -0.75 0.625
vt -1 1
vt -0.75 1
vt 0.75 0.625
vt 1 0.625
vt 0.75 1
vt 1 1
vt -0.25 0.125
vt 0.25 0
vt 0.25 0.125
vt -0.5 0.1262948
vt 0 0.1262948
vt 0 0.2341716
vt 0 0.9182684
vt 0 1.241899
vt -0.5 1.241899
vt -0.5 0.9182684
vt -0.5 0.2341716

vn 0 1 0
vn 0 -1 0
vn -1 0 0
vn 0 0 1
vn 0 0 -1
vn 1 0 0
vn 0.902369 0.2357023 0
vn 0.8047379 0.4714045 0

usemtl TrashTop1
f 2/2/1 1/1/1 4/4/1 3/3/1
f 5/5/2 8/8/2 7/7/2 6/6/2
f 10/10/2 9/9/2 8/8/2 5/5/2

usemtl TrashTop1
f 1/33/6 13/34/7 4/32/6
f 13/34/7 14/31/8 4/32/6
f 13/34/7 15/35/8 14/31/8
f 15/35/8 16/30/7 14/31/8
f 15/35/8 9/28/6 16/30/7
f 9/28/6 10/29/6 16/30/7
f 11/13/3 6/12/3 7/11/3
f 7/11/3 12/14/3 11/13/3
f 3/15/3 11/13/3 12/14/3
f 12/14/3 2/16/3 3/15/3

usemtl TrashR1
f 13/18/4 12/17/4 7/6/4 8/5/4
f 1/20/4 2/19/4 12/17/4 13/18/4
f 15/25/4 13/18/4 8/5/4 9/10/4

usemtl DGContinuous
f 6/3/5 11/22/5 14/21/5 5/4/5
f 11/22/5 3/24/5 4/23/5 14/21/5
f 5/4/5 14/21/5 16/27/5 10/26/5

