# ProBuilder 5.0.4
# https://unity3d.com/unity/features/worldbuilding/probuilder
# 7/28/2022 11:16:18 AM

mtllib ./DoorwayA1.mtl
o DoorwayA1

g Doorway
v 0 5 4
v -1 5 4
v -1 5 3
v 0 5 3
v -1 0 3
v -1 0 4
v 0 0 4
v 0 0 3
v -1 4 4
v 0 4 4
v -1 0 0
v 0 0 0
v 0 4 0
v -1 4 0
v 0 5 0
v -1 5 0
v -1 4 3
v 0 4 3
v 0 5 1
v -1 5 1
v -1 0 1
v 0 0 1
v -1 4 1
v 0 4 1

vt 0 4
vt 1 4
vt 1 3
vt 0 3
vt -1 3
vt -1 4
vt 0 0
vt -1 0
vt -1 5
vt 0 5
vt 1 0
vt 1 5
vt 4 0
vt 3 0
vt 3 4
vt 4 4
vt 3 5
vt 4 5
vt -4 0
vt -4 4
vt -3 4
vt -3 0
vt -4 5
vt -3 5
vt 0 1
vt 1 1
vt -1 1

vn 0 1 0
vn 0 -1 0
vn 0 0 1
vn 0 0 -1
vn -1 0 0
vn 1 0 0

usemtl GStone
f 2/2/1 1/1/1 4/4/1 3/3/1
f 8/4/2 7/1/2 6/6/2 5/5/2
f 10/1/3 9/6/3 6/8/3 7/7/3
f 1/10/3 2/9/3 9/6/3 10/1/3
f 11/11/4 14/2/4 13/1/4 12/7/4
f 14/2/4 16/12/4 15/10/4 13/1/4
f 20/26/1 19/25/1 15/7/1 16/11/1
f 12/7/2 22/25/2 21/27/2 11/8/2
f 3/3/1 4/4/1 19/25/1 20/26/1

usemtl RibbedProfile
f 18/4/4 8/4/4 5/5/4 17/5/4
f 22/25/3 24/25/3 23/27/3 21/27/3
f 24/25/2 18/4/2 17/5/2 23/27/2

usemtl Strip1Horizontal
f 3/17/5 20/12/5 23/2/5 17/15/5
f 24/6/6 19/9/6 4/24/6 18/21/6

usemtl Strip1Vertical
f 9/16/5 17/15/5 5/14/5 6/13/5
f 8/22/6 18/21/6 10/20/6 7/19/6
f 23/2/5 14/1/5 11/7/5 21/11/5
f 12/7/6 13/1/6 24/6/6 22/8/6

usemtl QuarterPanel1
f 2/18/5 3/17/5 17/15/5 9/16/5
f 18/21/6 4/24/6 1/23/6 10/20/6
f 20/12/5 16/10/5 14/1/5 23/2/5
f 13/1/6 15/10/6 19/9/6 24/6/6

