# ProBuilder 5.0.4
# https://unity3d.com/unity/features/worldbuilding/probuilder
# 7/25/2022 11:32:08 AM

mtllib ./DoorA1.mtl
o DoorA1

g Door
v 0 0 2
v -0.25 0 2
v 0 4 2
v -0.25 4 2
v -0.25 0 0
v -0.25 4 0
v 0 0 0
v 0 4 0

vt 0 0
vt -0.25 0
vt 0 4
vt -0.25 4
vt 2 0
vt 2 4
vt 0.25 0
vt 0.25 4
vt -2 0
vt -2 4
vt 0 2
vt 0.25 2
vt -0.25 2

vn 0 0 1
vn -1 0 0
vn 0 0 -1
vn 1 0 0
vn 0 1 0
vn 0 -1 0

usemtl GreyStripL_Horizontal
f 4/6/2 6/3/2 5/1/2 2/5/2
f 8/3/4 3/10/4 1/9/4 7/1/4

usemtl GreyStripM
f 3/3/1 4/4/1 2/2/1 1/1/1
f 6/8/3 8/3/3 7/1/3 5/7/3
f 8/1/5 6/7/5 4/12/5 3/11/5
f 1/11/6 2/13/6 5/2/6 7/1/6

