# ProBuilder 5.0.4
# https://unity3d.com/unity/features/worldbuilding/probuilder
# 7/19/2022 11:42:06 AM

mtllib ./FloorCeilingA1x10x1.mtl
o FloorCeilingA1x10x1

g FloorCeilingA1x10x1
v 0 0.875 1
v -10 0.875 1
v 0 1.875 1
v -10 1.875 1
v -10 0.875 0
v -10 1.875 0
v 0 0.875 0
v 0 1.875 0

vt 0 0.875
vt -10 0.875
vt 0 1.875
vt -10 1.875
vt 1 0.875
vt 1 1.875
vt 10 0.875
vt 10 1.875
vt -1 0.875
vt -1 1.875
vt 0 1
vt 10 1
vt 0 0
vt 10 0
vt -10 0
vt -10 1

vn 0 0 1
vn -1 0 0
vn 0 0 -1
vn 1 0 0
vn 0 1 0
vn 0 -1 0

usemtl GFloorPanel1
f 8/13/5 6/14/5 4/12/5 3/11/5

usemtl GStone
f 3/3/1 4/4/1 2/2/1 1/1/1
f 4/6/2 6/3/2 5/1/2 2/5/2
f 6/8/3 8/3/3 7/1/3 5/7/3
f 8/3/4 3/10/4 1/9/4 7/1/4

usemtl GreyStripL
f 1/11/6 2/16/6 5/15/6 7/13/6

