# ProBuilder 5.0.4
# https://unity3d.com/unity/features/worldbuilding/probuilder
# 7/28/2022 11:53:58 AM

mtllib ./HangingLight1.mtl
o HangingLight1

g HangingLight1
v -1 0.5 0.5
v -1 0.5 0
v -1 1 0.5
v -1 1 0
v 0 0.5 0
v 0 0.5 0.5
v 0 1 0
v 0 1 0.5
v -0.875 0.25 0.75
v -1 0.25 0.75
v -1 1.25 0.75
v -0.875 1.25 0.75
v -1 0.25 -0.25
v -0.875 0.25 -0.25
v -0.875 1.25 -0.25
v -1 1.25 -0.25
v 0 0.25 0.75
v -0.5 0.25 0.75
v -0.5 1.25 0.75
v 0 1.25 0.75
v -0.5 0.5 0.5
v -0.875 0.5 0.5
v -0.875 1 0.5
v -0.5 1 0.5
v 0 0.25 -0.25
v 0 1.25 -0.25
v -0.5 1.25 -0.25
v -0.5 0.25 -0.25
v -0.5 1 0
v -0.875 1 0
v -0.875 0.5 0
v -0.5 0.5 0

vt 0.5 0.5
vt 0 0.5
vt 0.5 1
vt 0 1
vt -0.5 0.5
vt -0.5 1
vt -0.875 0.25
vt -1 0.25
vt -1 1.25
vt -0.875 1.25
vt 1 0.25
vt 0.875 0.25
vt 0.875 1.25
vt 1 1.25
vt 0.875 0.75
vt 1 0.75
vt 1 -0.25
vt 0.875 -0.25
vt -0.875 -0.25
vt -1 -0.25
vt -1 0.75
vt -0.875 0.75
vt 0 0.25
vt -0.5 0.25
vt -0.5 1.25
vt 0 1.25
vt -0.875 0.5
vt -0.875 1
vt 0.5 1.25
vt 0.5 0.25
vt 0.875 1
vt 0.875 0.5
vt 0.875 0
vt 0.5 0
vt 0.5 -0.25
vt 0 -0.25
vt 0 0.75
vt 0.5 0.75
vt -0.875 0
vt -0.5 0
vt -0.5 0.75
vt -0.5 -0.25
vt -0.75 0.25
vt 0.25 0.25
vt 0.75 0.25
vt 0.75 1.25
vt -0.75 1.25
vt -0.25 0.25
vt -0.25 1.25
vt 0.25 1.25

vn -1 0 0
vn 1 0 0
vn 0 0 1
vn 0 0 -1
vn 0 1 0
vn 0 -1 0

usemtl GContinuous
f 24/6/3 23/28/3 22/27/3 21/5/3
f 31/32/4 30/31/4 29/3/4 32/1/4
f 23/32/5 24/1/5 29/34/5 30/33/5
f 32/40/6 21/5/6 22/27/6 31/39/6
f 27/49/1 28/48/1 32/2/1 29/4/1
f 19/46/1 27/49/1 29/4/1 24/3/1
f 28/48/1 18/45/1 21/1/1 32/2/1
f 18/45/1 19/46/1 24/3/1 21/1/1

usemtl OffWGlow
f 3/3/1 4/4/1 2/2/1 1/1/1
f 12/10/3 11/9/3 10/8/3 9/7/3
f 13/11/4 16/14/4 15/13/4 14/12/4
f 11/16/5 12/15/5 15/18/5 16/17/5
f 14/19/6 9/22/6 10/21/6 13/20/6
f 9/43/2 14/44/2 31/2/2 22/5/2
f 10/45/1 11/46/1 3/3/1 1/1/1
f 12/47/2 9/43/2 22/5/2 23/6/2
f 13/48/1 10/45/1 1/1/1 2/2/1
f 11/46/1 16/49/1 4/4/1 3/3/1
f 14/44/2 15/50/2 30/4/2 31/2/2
f 15/50/2 12/47/2 23/6/2 30/4/2
f 16/49/1 13/48/1 2/2/1 4/4/1

usemtl GreyStripL
f 20/26/3 19/25/3 18/24/3 17/23/3
f 28/30/4 27/29/4 26/26/4 25/23/4
f 19/38/5 20/37/5 26/36/5 27/35/5
f 25/36/6 17/37/6 18/41/6 28/42/6

usemtl DGContinuous
f 7/4/2 8/6/2 6/5/2 5/2/2
f 25/44/2 26/50/2 7/4/2 5/2/2
f 26/50/2 20/47/2 8/6/2 7/4/2
f 17/43/2 25/44/2 5/2/2 6/5/2
f 20/47/2 17/43/2 6/5/2 8/6/2

