# ProBuilder 5.0.4
# https://unity3d.com/unity/features/worldbuilding/probuilder
# 7/21/2022 11:16:02 AM

mtllib ./VentA1x2x1.mtl
o VentA1x2x1

g VentA1x1x1
v 0 0 2
v -1 0 2
v 0 1 2
v -1 1 2
v -1 0 0
v -1 1 0
v 0 0 0
v 0 1 0

vt 0 0
vt -1 0
vt 0 1
vt -1 1
vt 2 0
vt 2 1
vt 1 0
vt 1 1
vt -2 0
vt -2 1
vt 0 2
vt 1 2
vt -1 2

vn 0 0 1
vn -1 0 0
vn 0 0 -1
vn 1 0 0
vn 0 1 0
vn 0 -1 0

usemtl GContinuous
f 3/3/1 4/4/1 2/2/1 1/1/1
f 4/6/2 6/3/2 5/1/2 2/5/2
f 6/8/3 8/3/3 7/1/3 5/7/3
f 8/3/4 3/10/4 1/9/4 7/1/4
f 8/1/5 6/7/5 4/12/5 3/11/5
f 1/11/6 2/13/6 5/2/6 7/1/6

