# ProBuilder 5.0.4
# https://unity3d.com/unity/features/worldbuilding/probuilder
# 7/21/2022 11:17:55 AM

mtllib ./VentA3x10x1.mtl
o VentA3x10x1

g VentA1x1x1
v 0 0 10
v -1 0 10
v 0 3 10
v -1 3 10
v -1 0 0
v -1 3 0
v 0 0 0
v 0 3 0

vt 0 0
vt -1 0
vt 0 3
vt -1 3
vt 10 0
vt 10 3
vt 1 0
vt 1 3
vt -10 0
vt -10 3
vt 0 10
vt 1 10
vt -1 10

vn 0 0 1
vn -1 0 0
vn 0 0 -1
vn 1 0 0
vn 0 1 0
vn 0 -1 0

usemtl GContinuous
f 3/3/1 4/4/1 2/2/1 1/1/1
f 4/6/2 6/3/2 5/1/2 2/5/2
f 6/8/3 8/3/3 7/1/3 5/7/3
f 8/3/4 3/10/4 1/9/4 7/1/4
f 8/1/5 6/7/5 4/12/5 3/11/5
f 1/11/6 2/13/6 5/2/6 7/1/6

