# ProBuilder 5.0.4
# https://unity3d.com/unity/features/worldbuilding/probuilder
# 2/11/2023 8:48:43 PM

mtllib ./VentCover1.mtl
o VentCover1

g VentCover1
v -0.125 0 0
v -0.125 0 -0.125
v -0.125 0.125 -0.125
v -0.125 0.125 0
v 1.125 0 -0.125
v 1.125 0 0
v 1.125 0.125 0
v 1.125 0.125 -0.125
v -0.125 0 1.125
v -0.125 0 1
v -0.125 0.125 1
v -0.125 0.125 1.125
v 1.125 0 1.125
v 1.125 0.125 1.125
v 1.125 0.125 1
v 1.125 0 1
v 0 0 1.125
v 0 0.125 1.125
v 0 0 -0.125
v 0 0.125 -0.125
v 0 0.125 0
v 0 0 0
v 0 0.125 1
v 0 0 1
v 1 0 1.125
v 1 0.125 1.125
v 1 0.125 -0.125
v 1 0 -0.125
v 1 0.125 0
v 1 0 0
v 1 0.125 1
v 1 0 1

vt 0 0
vt -0.125 0
vt -0.125 0.125
vt 0 0.125
vt 0.125 0
vt 0.125 0.125
vt 1.125 0
vt 1 0
vt 1 0.125
vt 1.125 0.125
vt -1.125 0
vt -1.125 0.125
vt -1 0.125
vt -1 0
vt 0.125 -0.125
vt 0 -0.125
vt -0.125 -0.125
vt 0 1
vt 0.125 1
vt 0 1.125
vt 0.125 1.125
vt -0.125 1
vt -0.125 1.125
vt -1 -0.125
vt -1.125 -0.125
vt 1 -0.125
vt 1.125 -0.125
vt -1 1
vt -1.125 1
vt -1 1.125
vt -1.125 1.125
vt 1 1
vt 1.125 1
vt 1 1.125
vt 1.125 1.125

vn -1 0 0
vn 1 0 0
vn 0 0 1
vn 0 0 -1
vn 0 1 0
vn 0 -1 0

usemtl GreyStripS
f 4/4/1 3/3/1 2/2/1 1/1/1
f 5/5/2 8/6/2 7/4/2 6/1/2
f 12/10/1 11/9/1 10/8/1 9/7/1
f 16/14/2 15/13/2 14/12/2 13/11/2
f 18/4/3 12/3/3 9/2/3 17/1/3
f 2/5/4 3/6/4 20/4/4 19/1/4
f 4/5/5 21/1/5 20/16/5 3/15/5
f 19/16/6 22/1/6 1/2/6 2/17/6
f 11/19/5 23/18/5 21/1/5 4/5/5
f 12/21/5 18/20/5 23/18/5 11/19/5
f 22/1/6 24/18/6 10/22/6 1/2/6
f 24/18/6 17/20/6 9/23/6 10/22/6
f 14/10/3 26/9/3 25/8/3 13/7/3
f 28/14/4 27/13/4 8/12/4 5/11/4
f 29/14/5 7/11/5 8/25/5 27/24/5
f 28/26/6 30/8/6 22/1/6 19/16/6
f 5/27/6 6/7/6 30/8/6 28/26/6
f 31/28/5 15/29/5 7/11/5 29/14/5
f 26/30/5 14/31/5 15/29/5 31/28/5
f 6/7/6 16/33/6 32/32/6 30/8/6
f 32/32/6 25/34/6 17/20/6 24/18/6
f 16/33/6 13/35/6 25/34/6 32/32/6

usemtl VentGrill1
f 23/18/5 31/28/5 29/14/5 21/1/5
f 30/8/6 32/32/6 24/18/6 22/1/6

usemtl GreyStripS_Horizontal
f 11/9/1 4/4/1 1/1/1 10/8/1
f 6/1/2 7/4/2 15/13/2 16/14/2
f 26/9/3 18/4/3 17/1/3 25/8/3
f 19/1/4 20/4/4 27/13/4 28/14/4
f 21/1/5 29/14/5 27/24/5 20/16/5
f 18/20/5 26/30/5 31/28/5 23/18/5

