# ProBuilder 5.0.4
# https://unity3d.com/unity/features/worldbuilding/probuilder
# 7/20/2022 11:47:22 AM

mtllib ./WallPanelV_4x4x1.mtl
o WallPanelV 4x4x1

g WallPanelV 4x4x1
v -1 0 2
v -1 0 1
v -1 2 1
v -1 2 2
v -1 0 -2
v -1 2 -2
v 0 0 1
v 3 0 1
v 3 2 1
v 0 2 1
v 3 0 2
v 3 2 2
v 1 0 2
v 1 2 2
v 0 0 -2
v 0 2 -2

vt 2 0
vt 1 0
vt 1 2
vt 2 2
vt -2 0
vt -2 2
vt -0.7071068 0
vt -2.828427 0
vt -2.828427 2
vt -0.7071068 2
vt -3.535534 0
vt -3.535534 2
vt 3 0
vt 3 2
vt -1 0
vt -1 2
vt 2.12132 0
vt 1.414214 0
vt 1.414214 2
vt 2.12132 2
vt 1 1
vt 0 1
vt -3 1
vt -3 2
vt 1 -2
vt 0 -2
vt -1 -2
vt -1 1
vt 3 1

vn -1 0 0
vn 0 0 -1
vn 1 0 0
vn 0 0 1
vn 0 1 0
vn 0 0 0
vn 0 -1 0

usemtl GreyPanel
f 4/4/1 3/3/1 2/2/1 1/1/1
f 3/3/1 6/6/1 5/5/1 2/2/1

usemtl GStone
f 7/7/2 10/10/2 9/9/2 8/8/2
f 8/8/3 9/9/3 12/12/3 11/11/3
f 5/17/2 6/20/2 16/19/2 15/18/2
f 15/18/3 16/19/3 10/10/3 7/7/3
f 4/3/5 14/16/5 10/22/5 3/21/5
f 14/16/5 12/24/5 9/23/5 10/22/5
f 10/22/5 16/26/5 6/25/5 3/21/5
f 10/22/6 9/23/6 10/22/6 16/26/6
f 2/28/7 5/27/7 15/26/7 7/22/7
f 15/26/6 7/22/6 8/29/6 7/22/6
f 7/22/7 13/3/7 1/16/7 2/28/7
f 8/29/7 11/14/7 13/3/7 7/22/7

usemtl GreyPanel_1NoOffset
f 12/14/4 14/3/4 13/2/4 11/13/4
f 14/3/4 4/16/4 1/15/4 13/2/4

