# ProBuilder 5.0.4
# https://unity3d.com/unity/features/worldbuilding/probuilder
# 7/20/2022 11:29:39 AM

mtllib ./WallPanelA_4x4x1.mtl
o WallPanelA 4x4x1

g WallPanelA 4x4x1
v 0 0 4
v -1 0 4
v 0 4 4
v -1 4 4
v -1 0 0
v -1 4 0
v 0 0 0
v 0 4 0

vt 0 0
vt -1 0
vt 0 4
vt -1 4
vt 4 0
vt 4 4
vt 1 0
vt 1 4
vt -4 0
vt -4 4

vn 0 0 1
vn -1 0 0
vn 0 0 -1
vn 1 0 0
vn 0 1 0
vn 0 -1 0

usemtl GreyPanel
f 4/6/2 6/3/2 5/1/2 2/5/2
f 8/3/4 3/10/4 1/9/4 7/1/4

usemtl GStone
f 3/3/1 4/4/1 2/2/1 1/1/1
f 6/8/3 8/3/3 7/1/3 5/7/3
f 8/1/5 6/7/5 4/8/5 3/3/5
f 1/3/6 2/4/6 5/2/6 7/1/6

